<svg width="200" height="200" viewBox="0 0 200 200" fill="none" xmlns="http://www.w3.org/2000/svg">
<rect width="200" height="200" rx="50" fill="#134D8A"/>
<path d="M89.938 143H67.602L61.778 97.304L55.698 143H33.746L23.698 75.032H42.194L46.61 130.392L53.778 83.608H70.802L77.202 130.392L81.746 75.032H99.602L89.938 143ZM170.144 139.032C167.499 140.739 164.299 142.189 160.544 143.384C156.789 144.579 152.565 145.176 147.872 145.176C138.997 145.176 132.405 142.915 128.096 138.392C123.787 133.827 121.632 127.64 121.632 119.832V88.984H107.36V75.032H121.632V60.312L141.856 57.88V75.032H163.744L161.76 88.984H141.856V119.832C141.856 123.203 142.624 125.613 144.16 127.064C145.696 128.515 148.149 129.24 151.52 129.24C153.909 129.24 156.085 128.963 158.048 128.408C160.053 127.811 161.845 127.064 163.424 126.168L170.144 139.032Z" fill="white"/>
</svg>
